<svg version="1.0" xmlns="http://www.w3.org/2000/svg" width="464.000000pt" height="310.000000pt" viewBox="0 0 464.000000 310.000000" preserveAspectRatio="xMidYMid meet">

<g transform="translate(0.000000,310.000000) scale(0.100000,-0.100000)" fill="#db2517" stroke="none">
<path d="M665 2971 c-33 -15 -83 -46 -111 -68 -141 -113 -262 -363 -281 -580 l-6 -73 577 0 576 0 0 375 0 375 -347 0 -348 0 -60 -29z" fill="#db2517"/>
<path d="M1750 2625 l0 -375 565 0 565 0 0 375 0 375 -565 0 -565 0 0 -375z" fill="#db2517"/>
<path d="M3200 2625 l0 -375 575 0 575 0 0 59 c0 76 -39 229 -83 323 -72 156 -179 278 -298 337 l-62 31 -354 0 -353 0 0 -375z" fill="#db2517"/>
<path d="M2166 2159 c-119 -29 -208 -80 -302 -174 -124 -123 -184 -263 -185 -430 -2 -356 280 -635 641 -635 182 0 334 63 461 190 122 122 184 270 183 440 -3 409 -394 708 -798 609z m313 -14 c167 -40 326 -165 400 -317 51 -105 71 -182 71 -278 -1 -272 -185 -516 -450 -594 -133 -39 -308 -28 -437 29 -266 118 -418 408 -358 688 47 222 231 412 455 471 73 19 239 20 319 1z" fill="#db2517"/>
<path d="M2304 2126 c-7 -18 -73 -22 -104 -6 -15 8 -22 6 -33 -11 -9 -13 -17 -16 -22 -10 -3 6 -12 11 -18 11 -7 0 -6 -4 3 -10 22 -14 6 -22 -44 -24 -41 -2 -79 -16 -45 -16 10 -1 8 -5 -6 -15 -18 -14 -18 -17 -3 -31 21 -21 41 -9 33 19 -6 22 -6 22 11 2 16 -20 16 -20 9 3 -7 25 3 29 19 6 16 -22 45 -8 39 19 -4 20 -3 20 12 -3 l16 -25 -6 28 c-7 33 2 36 16 5 9 -23 10 -23 5 -1 -2 13 2 24 11 27 11 5 13 1 8 -15 -5 -16 -3 -20 6 -17 8 3 13 12 12 19 -2 9 6 15 17 16 11 1 20 -4 20 -12 0 -19 25 -26 46 -11 11 9 13 15 6 20 -6 4 -8 14 -5 23 5 13 10 9 19 -18 12 -32 13 -32 13 -8 1 33 -26 60 -35 35z m-109 -16 c3 -5 -1 -10 -10 -10 -9 0 -13 5 -10 10 3 6 8 10 10 10 2 0 7 -4 10 -10z m-65 -55 c0 -8 -4 -15 -8 -15 -5 0 -9 7 -9 15 0 8 4 15 9 15 4 0 8 -7 8 -15z m-75 -25 c3 -5 1 -10 -4 -10 -6 0 -11 5 -11 10 0 6 2 10 4 10 3 0 8 -4 11 -10z" fill="#db2517"/>
<path d="M2410 2100 c13 -8 13 -11 1 -19 -8 -5 -10 -14 -6 -22 6 -9 11 -6 17 10 9 25 3 41 -15 41 -7 0 -6 -4 3 -10z" fill="#db2517"/>
<path d="M2437 2087 c-3 -8 -1 -20 4 -28 7 -11 9 -9 9 8 0 12 6 24 13 26 7 4 6 6 -4 6 -9 1 -19 -5 -22 -12z" fill="#db2517"/>
<path d="M2474 2077 c-12 -14 -7 -37 7 -37 6 0 7 5 4 10 -3 6 -2 10 3 10 5 0 9 7 9 15 0 18 -8 19 -23 2z" fill="#db2517"/>
<path d="M2514 2071 c4 -5 0 -12 -6 -15 -9 -3 -7 -9 6 -20 11 -9 22 -13 25 -10 3 3 -1 9 -8 13 -9 6 -10 11 -2 15 6 4 11 2 11 -4 0 -6 5 -8 11 -4 8 4 9 -1 4 -17 -7 -23 -7 -24 9 -4 22 28 20 32 -15 44 -39 13 -42 14 -35 2z" fill="#db2517"/>
<path d="M2598 2038 c10 -13 10 -16 0 -14 -7 0 -14 -2 -15 -6 -2 -5 0 -8 3 -7 4 0 10 -5 14 -11 6 -9 11 -7 19 8 10 18 8 23 -11 33 -20 11 -22 10 -10 -3z" fill="#db2517"/>
<path d="M2206 2004 c-131 -32 -264 -138 -320 -257 -124 -262 26 -578 309 -652 186 -48 386 18 506 168 62 78 90 151 96 258 5 70 2 100 -15 155 -75 244 -327 388 -576 328z m318 -47 c141 -70 230 -188 257 -341 24 -140 -32 -299 -139 -397 -209 -192 -532 -162 -698 64 -63 85 -87 172 -82 290 3 77 9 103 35 160 36 76 116 166 181 204 82 48 147 63 263 60 100 -2 110 -4 183 -40z" fill="#db2517"/>
<path d="M2296 1968 c-3 -7 -6 -22 -8 -32 -4 -23 -28 -34 -28 -14 0 8 -6 22 -13 32 -10 14 -17 15 -41 7 -24 -10 -27 -15 -21 -41 8 -36 -9 -40 -35 -8 -16 20 -21 21 -45 10 -27 -12 -28 -20 -10 -64 9 -23 -17 -25 -35 -3 -17 20 -33 19 -55 -5 -18 -20 -18 -21 5 -45 29 -31 20 -42 -20 -25 -27 11 -32 11 -45 -6 -21 -28 -18 -43 10 -56 36 -16 25 -34 -18 -30 -32 3 -37 0 -43 -23 -7 -29 1 -41 30 -47 34 -6 29 -26 -6 -30 -29 -3 -33 -7 -36 -35 -3 -29 -1 -32 29 -35 43 -4 48 -24 10 -33 -23 -5 -31 -12 -31 -28 0 -38 14 -50 49 -42 39 8 44 -16 6 -33 -30 -14 -30 -19 -7 -50 16 -21 21 -22 45 -11 34 15 46 5 24 -19 -22 -24 -21 -35 2 -56 18 -17 21 -17 45 0 33 21 43 12 27 -23 -11 -23 -10 -29 5 -40 25 -19 47 -16 62 7 19 31 35 25 29 -10 -5 -23 -2 -32 13 -40 31 -16 49 -12 56 15 8 33 32 32 36 -2 2 -23 8 -29 36 -31 30 -3 32 -1 32 27 0 38 22 41 38 6 20 -43 79 -27 70 19 -7 37 9 43 33 12 17 -22 23 -24 44 -14 27 12 32 37 13 56 -9 9 -9 15 0 24 9 9 17 7 35 -10 l23 -22 24 25 23 25 -22 24 c-26 27 -13 43 20 26 25 -14 44 -8 58 19 9 16 6 22 -21 40 -27 17 -30 21 -15 27 9 3 24 3 33 0 22 -8 44 11 44 39 0 17 -9 26 -31 34 -36 13 -30 31 12 31 27 0 29 3 29 35 0 32 -2 35 -29 35 -35 0 -51 18 -24 26 36 11 48 22 45 40 -7 33 -21 44 -47 34 -36 -14 -42 8 -10 34 25 20 26 24 14 44 -15 24 -31 27 -59 12 -29 -15 -36 7 -11 34 l21 22 -25 24 -25 23 -24 -22 c-27 -25 -44 -14 -26 18 15 29 13 37 -17 50 -25 11 -29 10 -46 -13 -23 -32 -38 -25 -30 14 5 26 2 31 -23 40 -24 9 -31 8 -41 -6 -7 -10 -13 -24 -13 -32 0 -25 -25 -6 -30 24 -4 23 -11 30 -33 32 -16 2 -29 -2 -31 -10z m54 -38 c0 -25 4 -30 25 -30 18 0 26 7 31 25 4 15 13 25 23 25 26 0 31 -9 21 -36 -7 -19 -5 -26 12 -38 20 -14 23 -14 36 7 9 12 17 24 18 25 1 2 12 1 23 -3 21 -6 21 -7 4 -36 -16 -28 -16 -29 2 -43 18 -13 22 -12 42 6 19 18 25 19 38 8 14 -12 13 -15 -6 -36 -22 -23 -22 -24 -4 -44 16 -17 20 -18 38 -5 27 19 33 19 41 -2 5 -11 -2 -24 -21 -39 -24 -19 -26 -24 -14 -38 8 -9 26 -15 44 -13 44 3 49 -27 8 -41 -21 -8 -31 -18 -31 -31 0 -17 6 -21 35 -21 31 0 35 -3 35 -25 0 -22 -4 -25 -35 -25 -30 0 -35 -3 -35 -24 0 -19 7 -26 30 -31 32 -7 35 -12 21 -34 -6 -9 -18 -11 -39 -6 -25 5 -31 3 -37 -16 -7 -21 -4 -25 35 -48 12 -8 12 -12 1 -25 -12 -14 -16 -14 -41 -1 -24 13 -30 13 -40 0 -12 -15 -10 -26 12 -57 10 -14 10 -20 0 -30 -9 -9 -17 -7 -37 12 -24 23 -25 23 -45 5 -19 -17 -19 -20 -4 -43 13 -20 14 -26 3 -33 -21 -13 -25 -11 -43 16 -14 22 -20 24 -37 14 -17 -8 -20 -17 -15 -40 3 -16 4 -29 2 -29 -3 0 -12 -3 -20 -6 -12 -5 -19 3 -27 25 -9 24 -16 31 -33 29 -16 -2 -22 -11 -24 -35 -2 -25 -8 -33 -23 -33 -13 0 -19 7 -19 23 0 51 -54 66 -65 18 -5 -23 -10 -28 -26 -24 -17 5 -20 11 -14 39 3 20 2 34 -4 34 -5 0 -16 3 -25 6 -10 4 -19 -3 -27 -20 -13 -28 -17 -30 -38 -17 -12 8 -13 14 -2 37 10 23 10 30 -3 42 -14 14 -17 14 -34 -1 -22 -20 -34 -21 -50 -5 -9 9 -7 17 10 35 20 21 20 25 7 39 -13 13 -20 13 -43 3 -23 -11 -29 -10 -37 2 -13 21 -11 25 16 37 44 20 24 65 -25 55 -41 -8 -50 25 -10 39 22 7 30 16 30 34 0 21 -5 24 -35 24 -28 0 -35 4 -35 19 0 15 8 21 33 23 25 2 33 8 35 26 3 17 -3 25 -26 33 -22 7 -29 15 -25 29 4 15 11 17 38 13 27 -4 35 -1 44 16 10 18 7 22 -20 37 -29 14 -30 17 -16 32 14 14 20 14 42 2 22 -12 27 -11 39 6 13 17 12 22 -6 41 -18 19 -19 25 -8 38 12 14 15 13 36 -6 18 -17 26 -19 43 -10 25 14 26 20 6 48 -14 20 -14 23 4 32 16 9 23 6 38 -14 13 -18 24 -23 40 -19 18 5 21 11 16 40 -5 29 -3 34 15 34 13 0 22 -9 26 -25 5 -18 13 -25 31 -25 21 0 25 5 25 30 0 25 4 30 25 30 21 0 25 -5 25 -30z" fill="#db2517"/>
<path d="M2204 1840 c-71 -28 -137 -89 -171 -158 -23 -47 -28 -70 -28 -132 1 -99 29 -163 101 -229 211 -193 549 -37 532 244 -8 117 -71 210 -180 266 -62 32 -185 36 -254 9z m244 -20 c109 -48 176 -153 176 -275 -1 -259 -314 -392 -507 -215 -75 69 -100 129 -95 229 5 109 50 190 138 244 81 50 197 57 288 17z" fill="#db2517"/>
<path d="M2286 1714 c-31 -81 -36 -140 -15 -198 10 -29 10 -39 1 -48 -23 -23 -47 4 -44 48 5 84 4 95 -13 114 -22 24 -62 26 -94 4 -20 -14 -21 -18 -8 -26 13 -7 15 -21 11 -76 -7 -87 14 -123 91 -158 45 -21 55 -30 55 -50 0 -22 4 -24 45 -24 43 0 45 1 45 29 0 25 5 30 35 35 78 15 137 105 117 179 -10 38 -6 57 14 57 21 0 17 17 -8 34 -31 22 -74 20 -99 -5 -18 -18 -20 -28 -14 -83 7 -66 -5 -93 -39 -80 -19 7 -19 9 -1 59 8 22 14 56 15 75 0 35 -48 190 -59 190 -4 0 -19 -34 -35 -76z m57 -15 c20 -60 22 -126 6 -180 -9 -30 -9 -42 1 -54 19 -23 47 -18 66 10 14 22 15 31 4 72 -13 45 -13 47 14 70 31 26 45 28 70 10 16 -11 16 -15 3 -25 -11 -10 -13 -28 -10 -76 5 -59 4 -64 -26 -99 -41 -46 -85 -60 -174 -55 -84 4 -124 26 -152 85 -15 31 -16 46 -8 85 7 38 7 51 -4 59 -19 17 -16 26 13 33 32 8 60 0 68 -21 11 -27 -5 -143 -20 -143 -15 0 -29 19 -19 28 3 3 9 1 13 -5 4 -6 8 14 9 46 l2 56 -25 -30 c-13 -16 -24 -39 -24 -51 0 -26 34 -58 54 -51 9 4 18 2 21 -3 9 -15 51 -12 64 4 10 11 9 25 -3 61 -9 25 -16 56 -16 69 0 32 39 156 49 156 4 0 15 -23 24 -51z m-160 -167 c-3 -12 -9 -22 -14 -22 -12 0 -11 7 2 32 13 25 20 19 12 -10z m157 -197 c0 -20 -5 -25 -24 -25 -14 0 -28 5 -31 10 -12 19 4 40 30 40 20 0 25 -5 25 -25z" fill="#db2517"/>
<path d="M2302 1647 c-15 -43 -15 -86 2 -116 15 -26 22 -20 36 31 9 29 -6 118 -20 118 -3 0 -11 -15 -18 -33z m28 -28 c0 -11 -7 -19 -16 -19 -11 0 -14 5 -10 16 3 9 6 20 6 25 0 6 5 7 10 4 6 -3 10 -15 10 -26z m0 -63 c0 -8 -4 -18 -10 -21 -5 -3 -10 -4 -10 -1 0 2 -3 11 -6 20 -4 11 -1 16 10 16 9 0 16 -6 16 -14z" fill="#db2517"/>
<path d="M2443 1538 c1 -32 4 -53 5 -48 5 13 22 13 22 0 0 -6 -10 -15 -22 -20 -15 -6 -17 -9 -7 -9 22 -1 49 31 49 57 0 11 -11 34 -24 49 l-25 28 2 -57z m37 -20 c0 -4 -4 -8 -10 -8 -5 0 -10 4 -10 9 0 5 -3 18 -6 28 -5 16 -4 16 10 -1 9 -11 16 -23 16 -28z" fill="#db2517"/>
<path d="M1937 1980 c-14 -11 -32 -19 -39 -18 -7 2 -13 -4 -13 -13 0 -8 -15 -34 -34 -57 -27 -35 -31 -45 -21 -57 7 -8 18 -15 24 -15 6 0 2 7 -8 15 -11 8 -17 18 -13 21 4 4 15 1 24 -7 16 -13 17 -12 4 4 -11 14 -11 21 -3 29 9 9 12 8 12 -5 0 -9 6 -17 13 -17 18 1 49 48 41 62 -5 8 -2 9 11 4 18 -7 18 -6 1 13 -17 19 -17 20 3 30 25 14 31 14 31 1 0 -5 -3 -9 -7 -7 -5 1 -8 -2 -8 -8 0 -5 6 -8 15 -7 23 6 23 9 8 31 l-15 21 -26 -20z m-17 -41 c0 -4 -7 -6 -15 -3 -8 4 -15 10 -15 15 0 4 7 6 15 3 8 -4 15 -10 15 -15z m-5 -38 c-3 -3 -11 1 -16 9 -8 12 -10 10 -6 -7 6 -27 -8 -40 -17 -17 -9 24 13 47 31 33 7 -7 11 -14 8 -18z" fill="#db2517"/>
<path d="M2672 1974 c-15 -17 -15 -19 3 -38 17 -17 49 -11 38 8 -3 6 6 0 20 -13 31 -28 33 -33 12 -25 -10 4 -15 0 -15 -11 0 -10 5 -13 12 -9 8 5 9 2 4 -11 -7 -18 -6 -18 14 0 11 10 20 13 20 7 0 -6 -4 -13 -10 -17 -5 -3 -7 -12 -4 -19 3 -8 1 -17 -5 -21 -6 -3 -11 -1 -11 4 0 6 -4 11 -10 11 -5 0 -7 -7 -4 -15 8 -19 23 -19 45 1 10 9 23 13 28 9 16 -9 13 -25 -3 -19 -7 3 -16 -2 -19 -10 -4 -9 -2 -16 3 -16 6 0 10 4 10 9 0 6 9 8 20 6 11 -2 20 -1 20 3 0 14 -99 138 -127 158 -23 17 -31 19 -41 8z m28 -37 c0 -4 -6 -2 -14 5 -8 7 -12 17 -9 22 5 8 23 -12 23 -27z m100 -81 c0 -3 -4 -8 -10 -11 -5 -3 -10 -1 -10 4 0 6 5 11 10 11 6 0 10 -2 10 -4z" fill="#db2517"/>
<path d="M2710 1915 c-8 -9 -8 -15 -2 -15 12 0 26 19 19 26 -2 2 -10 -2 -17 -11z" fill="#db2517"/>
<path d="M1806 1823 c-3 -3 -6 -11 -6 -16 0 -6 3 -7 7 -4 3 4 12 2 19 -4 8 -6 14 -7 18 0 7 11 -28 34 -38 24z" fill="#db2517"/>
<path d="M1780 1745 c-10 -12 -9 -16 5 -21 23 -9 40 10 22 25 -11 9 -17 8 -27 -4z" fill="#db2517"/>
<path d="M2823 1744 c-7 -19 2 -28 22 -21 19 8 19 23 0 31 -9 3 -18 -1 -22 -10z" fill="#db2517"/>
<path d="M1785 1675 l30 -16 -32 4 c-18 2 -33 0 -33 -5 0 -4 8 -8 18 -8 14 -1 12 -3 -6 -13 -28 -16 -19 -27 22 -26 30 1 30 1 6 8 -24 7 -25 8 -3 15 18 6 39 34 31 42 -2 1 -17 5 -33 8 l-30 6 30 -15z" fill="#db2517"/>
<path d="M2875 1680 c-4 -6 -14 -9 -23 -5 -22 8 -32 -13 -20 -47 9 -25 15 -29 34 -24 17 5 24 2 24 -9 0 -9 -9 -15 -23 -15 -20 0 -24 -5 -25 -35 -1 -34 0 -35 36 -34 20 1 30 3 22 5 -8 3 -20 16 -27 29 -10 22 -9 25 7 25 42 0 33 49 -9 51 -20 1 -22 2 -6 6 11 3 25 10 30 15 7 8 5 9 -7 5 -21 -7 -24 3 -6 21 6 6 9 14 6 17 -3 4 -9 1 -13 -5z m-20 -30 c3 -5 1 -10 -4 -10 -6 0 -11 5 -11 10 0 6 2 10 4 10 3 0 8 -4 11 -10z m15 -120 c0 -5 -4 -10 -10 -10 -5 0 -10 5 -10 10 0 6 5 10 10 10 6 0 10 -4 10 -10z" fill="#db2517"/>
<path d="M1740 1576 c0 -33 38 -46 57 -20 18 25 17 31 -9 38 -39 10 -48 7 -48 -18z m50 -5 c0 -14 -12 -20 -26 -14 -22 8 -17 32 6 26 11 -3 20 -9 20 -12z" fill="#db2517"/>
<path d="M1753 1523 c9 -2 25 -2 35 0 9 3 1 5 -18 5 -19 0 -27 -2 -17 -5z" fill="#db2517"/>
<path d="M1745 1480 c0 -35 -2 -34 37 -14 32 17 29 24 -17 38 -17 5 -20 1 -20 -24z" fill="#db2517"/>
<path d="M2840 1488 c0 -4 8 -8 18 -8 14 -1 12 -3 -6 -13 -28 -16 -18 -27 22 -26 21 1 24 3 12 6 -19 5 -18 6 4 23 l23 17 -36 5 c-21 2 -37 0 -37 -4z" fill="#db2517"/>
<path d="M1762 1441 c-10 -6 -8 -10 9 -14 24 -7 39 -1 39 14 0 11 -30 12 -48 0z" fill="#db2517"/>
<path d="M2860 1423 c-8 -2 -22 -7 -30 -9 -10 -4 -5 -11 18 -26 18 -11 36 -18 39 -14 4 3 1 6 -5 6 -17 0 -15 16 4 34 16 17 6 20 -26 9z" fill="#db2517"/>
<path d="M1761 1406 c-12 -14 -10 -16 10 -16 13 0 31 5 39 11 12 9 11 10 -7 6 -12 -3 -24 0 -25 5 -2 6 -10 3 -17 -6z" fill="#db2517"/>
<path d="M2815 1363 c4 -15 2 -23 -6 -23 -19 0 2 -16 31 -25 21 -6 23 -5 12 6 -10 11 -8 16 10 26 l23 13 -25 -2 c-14 -2 -31 4 -38 12 -11 13 -12 12 -7 -7z" fill="#db2517"/>
<path d="M1795 1354 l-30 -14 30 6 c31 6 41 11 34 18 -2 2 -17 -2 -34 -10z" fill="#db2517"/>
<path d="M1794 1324 c-18 -15 -18 -15 3 -5 15 8 22 8 25 0 2 -7 9 -5 17 5 12 14 11 16 -6 16 -10 0 -28 -7 -39 -16z" fill="#db2517"/>
<path d="M1797 1291 c-10 -12 -7 -13 18 -7 41 10 53 24 20 23 -15 -1 -32 -8 -38 -16z" fill="#db2517"/>
<path d="M2786 1286 c4 -11 0 -16 -12 -17 -11 -1 -3 -5 16 -9 19 -5 36 -8 37 -7 1 1 -9 13 -23 26 -16 15 -22 18 -18 7z" fill="#db2517"/>
<path d="M1846 1281 c-4 -5 -3 -16 0 -25 3 -9 1 -16 -4 -16 -6 0 -12 8 -14 18 -2 11 -6 13 -10 6 -10 -15 16 -49 30 -40 7 4 12 17 12 29 0 21 0 21 16 -2 16 -23 16 -25 -7 -42 -28 -22 -13 -26 17 -4 12 8 25 11 29 7 4 -4 2 3 -4 16 -6 12 -16 22 -20 22 -5 0 -11 9 -14 20 -5 21 -22 27 -31 11z" fill="#db2517"/>
<path d="M2740 1235 c-7 -8 -9 -22 -6 -31 4 -12 2 -15 -9 -11 -16 7 -48 -20 -42 -36 11 -34 67 -33 67 2 0 10 9 21 20 24 23 6 37 34 23 48 -6 6 -14 4 -23 -6 -11 -13 -10 -14 4 -9 9 3 16 1 16 -4 0 -16 -16 -23 -34 -16 -19 7 -21 30 -3 37 6 2 9 7 6 11 -3 4 -12 0 -19 -9z m-5 -75 c0 -22 -29 -18 -33 3 -3 14 1 18 15 15 10 -2 18 -10 18 -18z" fill="#db2517"/>
<path d="M1903 1183 c-13 -8 -23 -20 -23 -26 0 -6 11 0 26 13 21 21 27 22 34 10 6 -10 3 -22 -12 -37 -12 -13 -17 -23 -12 -23 5 0 16 9 23 19 8 11 20 17 27 14 11 -4 10 -10 -3 -30 -15 -22 -15 -25 0 -41 15 -15 18 -14 40 6 29 27 43 17 22 -15 -9 -13 -11 -23 -6 -23 6 0 15 9 22 21 7 14 14 18 21 11 7 -7 6 -17 -1 -31 -9 -17 -8 -22 8 -31 25 -13 42 -13 19 1 -25 14 -22 28 5 22 22 -5 22 -5 2 11 -20 17 -20 17 3 11 38 -11 25 3 -29 30 -48 25 -52 25 -69 10 -26 -24 -47 -9 -24 16 17 19 16 21 -11 49 -33 34 -32 34 -62 13z" fill="#db2517"/>
<path d="M2640 1137 c0 -5 8 -20 19 -33 17 -21 20 -22 37 -8 19 15 19 15 -1 9 -13 -4 -25 1 -37 17 -10 13 -18 19 -18 15z" fill="#db2517"/>
<path d="M2602 1111 c-21 -13 -11 -55 14 -59 32 -5 47 20 28 46 -17 24 -22 26 -42 13z m36 -35 c3 -13 -1 -17 -14 -14 -11 2 -20 11 -22 22 -3 13 1 17 14 14 11 -2 20 -11 22 -22z" fill="#db2517"/>
<path d="M2560 1082 c0 -4 5 -13 12 -20 9 -9 9 -12 -1 -12 -7 0 -9 -4 -6 -10 3 -5 13 -10 21 -10 13 0 12 4 -1 30 -15 29 -25 38 -25 22z" fill="#db2517"/>
<path d="M2512 1061 c-8 -4 -13 -12 -12 -17 1 -5 -3 -10 -9 -12 -6 -2 -11 1 -11 7 0 6 -4 11 -9 11 -6 0 -6 -12 0 -30 6 -16 15 -30 20 -30 4 0 6 7 3 15 -7 18 22 21 30 3 3 -7 3 3 1 22 l-6 35 16 -27 c9 -16 17 -28 20 -28 2 0 2 12 1 28 -3 28 -22 38 -44 23z" fill="#db2517"/>
<path d="M2147 1044 c-13 -13 -7 -52 8 -58 27 -10 46 5 43 33 -3 26 -35 41 -51 25z m43 -23 c0 -11 -5 -23 -11 -27 -15 -9 -33 12 -26 30 9 23 37 20 37 -3z" fill="#db2517"/>
<path d="M2216 1008 c-3 -17 -4 -33 -1 -36 3 -3 5 2 5 11 0 10 8 17 18 18 10 0 12 3 5 6 -7 2 -13 9 -13 14 0 4 7 5 17 2 11 -4 14 -3 9 5 -13 22 -33 12 -40 -20z" fill="#db2517"/>
<path d="M2413 1029 c-14 -14 -5 -46 15 -54 8 -3 23 1 31 10 15 15 14 16 -11 10 -24 -6 -28 -4 -28 13 0 11 8 23 18 25 13 4 13 5 2 6 -9 0 -21 -4 -27 -10z" fill="#db2517"/>
<path d="M2297 1022 c6 -4 13 -21 16 -37 l4 -30 2 33 c1 39 31 46 31 8 0 -30 14 -40 37 -27 16 9 15 10 -6 11 -24 0 -24 0 -5 15 19 14 19 14 -1 15 l-20 1 20 9 c14 6 5 9 -35 9 -30 0 -50 -3 -43 -7z" fill="#db2517"/>
<path d="M270 1550 l0 -380 575 0 575 0 0 380 0 380 -575 0 -575 0 0 -380z" fill="#db2517"/>
<path d="M3200 1550 l0 -380 575 0 575 0 0 380 0 380 -575 0 -575 0 0 -380z" fill="#db2517"/>
<path d="M270 798 c1 -119 61 -309 142 -446 50 -85 161 -191 239 -230 l66 -32 352 0 351 0 0 380 0 380 -575 0 -575 0 0 -52z" fill="#db2517"/>
<path d="M1750 470 l0 -380 565 0 565 0 0 380 0 380 -565 0 -565 0 0 -380z" fill="#db2517"/>
<path d="M3200 470 l0 -380 353 0 354 0 64 32 c44 21 89 57 144 112 67 67 90 99 133 186 60 121 102 272 102 366 l0 64 -575 0 -575 0 0 -380z" fill="#db2517"/>
</g>
</svg>